<?xml version="1.0" encoding="UTF-8"?>
<svg width="600px" height="155px" viewBox="0 0 600 155" version="1.1" xmlns="http://www.w3.org/2000/svg" xmlns:xlink="http://www.w3.org/1999/xlink">
    <title>CK Logo Full Color</title>
    <g id="CK-Logo-Full-Color" stroke="none" stroke-width="1" fill="none" fill-rule="evenodd">
        <g id="Logo_CareerKarma" fill-rule="nonzero">
            <g id="g12" transform="translate(300.000000, 77.154527) scale(-1, 1) rotate(-180.000000) translate(-300.000000, -77.154527) translate(0.000000, 0.154527)">
                <path d="M599.911684,14.2163324 C599.911684,6.5845445 593.726254,0.397348185 586.0927,0.397348185 C578.463561,0.397348185 572.273716,6.5845445 572.273716,14.2163324 C572.273716,21.8485618 578.463561,28.0357581 586.0927,28.0357581 C593.726254,28.0357581 599.911684,21.8485618 599.911684,14.2163324" id="path14" fill="#F78D2F"></path>
                <path d="M213.552312,77.494918 C208.309928,77.494918 203.381893,78.4384058 198.768648,80.3253815 C194.155403,82.2123572 190.153195,84.8503262 186.763792,88.2410546 C183.372622,91.6309 180.682555,95.6498844 178.690503,100.298891 C176.69845,104.946573 175.702423,109.997787 175.702423,115.449442 L175.702423,115.659155 C175.702423,120.969972 176.680348,125.950546 178.637964,130.599994 C180.593814,135.248117 183.285646,139.30198 186.711253,142.762466 C190.135094,146.222069 194.207941,148.930678 198.925822,150.887852 C203.644144,152.844585 208.797787,153.823834 214.391164,153.823834 C218.165557,153.823834 221.589398,153.456947 224.666219,152.722731 C227.740832,151.988956 230.554077,150.940391 233.106395,149.577035 C235.656947,148.214122 237.96379,146.589398 240.026042,144.701539 C242.086969,142.814563 243.921847,140.752312 245.530677,138.515667 L230.222952,126.667985 C228.125821,129.324056 225.818978,131.421186 223.302863,132.958934 C220.786749,134.495358 217.746131,135.265777 214.181451,135.265777 C211.594254,135.265777 209.235314,134.75761 207.104188,133.745248 C204.971297,132.731561 203.136418,131.350104 201.599553,129.604409 C200.061363,127.856506 198.855623,125.793372 197.982334,123.418096 C197.107279,121.041054 196.671518,118.524939 196.671518,115.868868 L196.671518,115.659155 C196.671518,112.933328 197.107279,110.364233 197.982334,107.952754 C198.855623,105.541275 200.061363,103.46048 201.599553,101.714343 C203.136418,99.9664406 204.971297,98.5849837 207.104188,97.5726217 C209.235314,96.5589352 211.594254,96.0529749 214.181451,96.0529749 C216.068427,96.0529749 217.798228,96.2622465 219.370855,96.681231 C220.943923,97.10154 222.376153,97.7116945 223.670192,98.5161095 C224.962908,99.3196415 226.186307,100.263129 227.339949,101.347456 C228.49315,102.430017 229.62825,103.635756 230.747013,104.964233 L246.054739,94.060922 C244.306836,91.6838801 242.401759,89.4816727 240.340832,87.4547412 C238.278139,85.4269266 235.936859,83.6807898 233.315667,82.2123572 C230.694916,80.7448075 227.759375,79.5916067 224.508603,78.7527546 C221.258272,77.9139025 217.605292,77.494918 213.552312,77.494918" id="path16" fill="#2E2B2D"></path>
                <polyline id="path18" fill="#2E2B2D" points="295.542597 152.880347 275.936416 152.880347 244.691825 78.9624676 266.080346 78.9624676 285.582332 128.660038 304.9788 78.9624676 326.787188 78.9624676 295.542597 152.880347"></polyline>
                <polyline id="path20" fill="#2E2B2D" points="400.913455 152.356285 459.836632 152.356285 459.836632 135.056064 420.940386 135.056064 420.940386 123.942599 456.167758 123.942599 456.167758 107.900657 420.940386 107.900657 420.940386 96.2622465 460.362019 96.2622465 460.362019 78.9624676 400.913455 78.9624676 400.913455 152.356285"></polyline>
                <polyline id="path22" fill="#2E2B2D" points="466.653409 152.356285 525.576145 152.356285 525.576145 135.056064 486.679899 135.056064 486.679899 123.942599 521.907271 123.942599 521.907271 107.900657 486.679899 107.900657 486.679899 96.2622465 526.101531 96.2622465 526.101531 78.9624676 466.653409 78.9624676 466.653409 152.356285"></polyline>
                <polyline id="path24" fill="#2E2B2D" points="401.549658 73.7907238 423.041931 73.7907238 440.551865 45.377038 458.061798 73.7907238 479.558486 73.7907238 479.558486 0.397348185 459.320076 0.397348185 459.320076 42.546133 440.604845 13.8176569 440.185419 13.8176569 421.576148 42.33642 421.576148 0.397348185 401.549658 0.397348185 401.549658 73.7907238"></polyline>
                <polyline id="path26" fill="#2E2B2D" points="533.342149 74.3152271 513.735086 74.3152271 482.490053 0.397348185 503.880781 0.397348185 523.381885 50.0953602 542.777028 0.397348185 564.587182 0.397348185 533.342149 74.3152271"></polyline>
                <polyline id="path28" fill="#2E2B2D" points="296.178358 74.3152271 276.572178 74.3152271 245.327587 0.397348185 266.716549 0.397348185 286.218535 50.0953602 305.615003 0.397348185 327.422949 0.397348185 296.178358 74.3152271"></polyline>
                <polyline id="path30" fill="#2E2B2D" points="178.854741 73.7907238 178.854741 0.397348185 199.195138 0.397348185 199.195138 73.7907238 178.854741 73.7907238"></polyline>
                <polyline id="path32" fill="#2E2B2D" points="222.993371 44.7302389 248.57836 73.7907238 224.463128 73.7907238 199.195138 44.0145656 225.092267 0.397348185 249.521847 0.397348185 222.993371 44.7302389"></polyline>
                <path d="M379.735531,104.544807 C384.348776,106.501098 388.01765,109.332445 390.743919,113.037963 C393.470188,116.742158 394.833102,121.426043 394.833102,127.087853 L394.833102,127.297124 C394.833102,134.495358 392.666215,140.193371 388.332881,144.38719 C385.885199,146.903746 382.705067,148.859596 378.791601,150.259155 C374.87637,151.656064 370.089173,152.356285 364.427363,152.356285 L329.722287,152.356285 L329.722287,78.9624676 L350.063567,78.9624676 L350.063567,101.190282 L350.063567,117.127147 L350.063567,134.741274 L363.378798,134.741274 C366.802639,134.741274 369.494471,134.023835 371.452529,132.591605 C373.40882,131.158934 374.388069,128.974828 374.388069,126.039288 L374.388069,125.829575 C374.388069,123.17218 373.444582,121.058714 371.556723,119.486087 C369.669747,117.91346 366.978357,117.127147 363.483875,117.127147 L350.063567,117.127147 L373.758489,78.9624676 L397.245022,78.9624676 L379.735531,104.544807" id="path34" fill="#2E2B2D"></path>
                <path d="M380.371734,25.9796875 C384.984537,27.9364203 388.653853,30.7673254 391.380122,34.4732855 C394.106391,38.1765967 395.468864,42.8609233 395.468864,48.5227333 L395.468864,48.7315633 C395.468864,55.9302386 393.301976,61.6278102 388.969084,65.8220706 C386.521844,68.3386268 383.34127,70.2944767 379.427363,71.6935936 C375.512131,73.0905031 370.724935,73.7907238 365.063125,73.7907238 L330.358931,73.7907238 L330.358931,0.397348185 L350.699328,0.397348185 L350.699328,22.6251622 L350.699328,38.5615856 L350.699328,56.1765962 L364.015001,56.1765962 C367.438842,56.1765962 370.130674,55.459157 372.08829,54.0273689 C374.044582,52.5938149 375.024272,50.409709 375.024272,47.4741682 L375.024272,47.2640137 C375.024272,44.6070601 374.080785,42.4940359 372.192926,40.9209675 C370.30595,39.3483406 367.614118,38.5615856 364.119637,38.5615856 L350.699328,38.5615856 L374.395133,0.397348185 L397.880784,0.397348185 L380.371734,25.9796875" id="path36" fill="#2E2B2D"></path>
                <path d="M582.401751,104.544807 C587.015437,106.501098 590.684311,109.332445 593.412788,113.037963 C596.13685,116.742158 597.501088,121.426043 597.501088,127.087853 L597.501088,127.297124 C597.501088,134.495358 595.333318,140.193371 591.002192,144.38719 C588.551861,146.903746 585.373053,148.859596 581.456938,150.259155 C577.545239,151.656064 572.754952,152.356285 567.094908,152.356285 L532.388507,152.356285 L532.388507,78.9624676 L552.732877,78.9624676 L552.732877,101.190282 L552.732877,117.127147 L552.732877,134.741274 L566.04855,134.741274 C569.470184,134.741274 572.16334,134.023835 574.11919,132.591605 C576.07504,131.158934 577.055172,128.974828 577.055172,126.039288 L577.055172,125.829575 C577.055172,123.17218 576.11036,121.058714 574.22515,119.486087 C572.335526,117.91346 569.646784,117.127147 566.150096,117.127147 L552.732877,117.127147 L576.428241,78.9624676 L599.911684,78.9624676 L582.401751,104.544807" id="path38" fill="#2E2B2D"></path>
                <path d="M29.596025,16.2543014 L53.9664439,56.7774792 C53.9664439,56.7774792 75.4860901,101.585867 100.4362,54.8432629 L115.809709,28.796906 C115.809709,28.796906 119.352756,22.6984514 123.031784,16.2543014 C140.985868,30.1999964 152.541276,51.9924904 152.541276,76.486971 C152.541276,118.585866 118.413241,152.713459 76.3143462,152.713459 C34.2150095,152.713459 0.0871074537,118.585866 0.0871074537,76.486971 C0.0871074537,51.9924904 11.6421624,30.2004379 29.596025,16.2543014" id="path40" fill="#2E2B2D"></path>
                <path d="M109.582778,7.97527294 L99.0203059,23.8375242 L92.798231,32.4975681 C92.798231,32.4975681 86.139953,41.2384068 80.5346551,42.1297975 C80.5346551,42.1297975 72.0971277,45.0198636 62.928916,34.869312 C62.928916,34.869312 56.2679891,26.2128001 55.5562893,24.9258244 L43.8944794,7.48344072 C53.7333313,2.85253576 64.720086,0.259599845 76.3143462,0.259599845 C88.2595997,0.259599845 99.5620277,3.01015165 109.626487,7.90816477 C109.611917,7.93023983 109.596906,7.95319789 109.582778,7.97527294" id="path42" fill="#F78D2F"></path>
            </g>
        </g>
    </g>
</svg>